<svg id="download" xmlns="http://www.w3.org/2000/svg" viewBox="0 0 35.85 25.36"><defs><style>.cls-1{fill:#fff;stroke-width:0px;}</style></defs><path class="cls-1"
	      d="M33.9,19.51h1.49c.25,0,.45.2.45.45h0c0,2.98-2.42,5.4-5.4,5.4H5.4c-2.98,0-5.4-2.42-5.4-5.4h0c0-.25.2-.45.45-.45h1.49c.25,0,.45.2.45.45h0c0,1.66,1.34,3,3,3h25.05c1.66,0,3-1.34,3-3h0c0-.25.2-.45.45-.45ZM21.12,15.42h-2V1.2c0-.66-.54-1.2-1.2-1.2s-1.2.54-1.2,1.2v14.22h-2c-.39,0-.58.49-.28.75l3.2,2.73c.16.14.39.14.55,0l3.2-2.73c.3-.26.12-.75-.28-.75Z"/></svg>