<svg id="extern" xmlns="http://www.w3.org/2000/svg" viewBox="0 0 35.85 35.85"><defs><style>.cls-1{fill:#19335f;stroke-width:0px;}</style></defs><g id="Ebene_1-2"><path class="cls-1" d="M34.65,14.98h0c.66,0,1.2.54,1.2,1.2v14.27c0,2.98-2.42,5.4-5.4,5.4H5.4c-2.98,0-5.4-2.42-5.4-5.4V5.4C0,2.42,2.42,0,5.4,0h14.27c.66,0,1.2.54,1.2,1.2h0c0,.66-.54,1.2-1.2,1.2H5.4c-1.66,0-3,1.34-3,3v25.05c0,1.66,1.34,3,3,3h25.05c1.66,0,3-1.34,3-3v-14.27c0-.66.54-1.2,1.2-1.2ZM35.52.72c-.02-.21-.18-.37-.39-.39L30.93,0c-.39-.03-.61.45-.33.72l1.41,1.41-10.06,10.06c-.47.47-.47,1.23,0,1.7.23.23.54.35.85.35s.61-.12.85-.35l10.06-10.06,1.41,1.41c.28.28.76.06.72-.33l-.33-4.19Z"/></g></svg>