<svg id="intern" xmlns="http://www.w3.org/2000/svg" viewBox="0 0 33.36 35.85"><defs><style>.cls-1{fill:#fff;stroke-width:0px;}</style></defs>
	<path class="cls-1"
	      d="M33.36,5.4v25.05c0,2.98-2.42,5.4-5.4,5.4h-11.32c-.66,0-1.2-.54-1.2-1.2h0c0-.66.54-1.2,1.2-1.2h11.32c1.66,0,3-1.34,3-3V5.4c0-1.66-1.34-3-3-3h-11.32c-.66,0-1.2-.54-1.2-1.2h0c0-.66.54-1.2,1.2-1.2h11.32c2.98,0,5.4,2.42,5.4,5.4ZM18.91,17.63l-2.73-3.2c-.26-.3-.75-.12-.75.28v2H1.2c-.66,0-1.2.54-1.2,1.2s.54,1.2,1.2,1.2h14.22v2c0,.39.49.58.75.28l2.73-3.2c.14-.16.14-.39,0-.55Z"/>
</svg>