<svg xmlns="http://www.w3.org/2000/svg" xmlns:xlink="http://www.w3.org/1999/xlink" viewBox="0 0 61.1 70.05"><defs><style>.cls-1,.cls-11,.cls-12,.cls-13,.cls-14,.cls-15,.cls-16,.cls-17,.cls-18,.cls-19,.cls-2,.cls-20,.cls-24,.cls-25,.cls-26,.cls-27,.cls-28,.cls-29,.cls-3,.cls-30,.cls-31,.cls-32,.cls-33,.cls-35,.cls-38,.cls-39,.cls-40,.cls-41,.cls-44,.cls-45,.cls-46,.cls-47,.cls-49,.cls-5,.cls-51,.cls-52,.cls-53,.cls-54,.cls-55,.cls-57,.cls-58,.cls-59,.cls-60,.cls-61,.cls-63,.cls-65,.cls-66,.cls-67,.cls-68,.cls-7,.cls-70,.cls-71,.cls-72,.cls-73{fill:none;}.cls-1,.cls-35,.cls-49,.cls-63,.cls-7{stroke:#e8e7e3;}.cls-1,.cls-2,.cls-3{stroke-miterlimit:3.86;stroke-width:0.05px;}.cls-2{stroke:#e896a8;}.cls-3{stroke:#e61764;}.cls-4{clip-path:url(#clip-path);}.cls-6{fill:#e8e7e3;}.cls-11,.cls-12,.cls-13,.cls-14,.cls-15,.cls-16,.cls-17,.cls-18,.cls-19,.cls-20,.cls-24,.cls-25,.cls-26,.cls-27,.cls-28,.cls-29,.cls-30,.cls-31,.cls-32,.cls-33,.cls-35,.cls-38,.cls-39,.cls-40,.cls-41,.cls-44,.cls-45,.cls-46,.cls-47,.cls-49,.cls-51,.cls-52,.cls-53,.cls-54,.cls-55,.cls-57,.cls-58,.cls-59,.cls-60,.cls-61,.cls-63,.cls-65,.cls-66,.cls-67,.cls-68,.cls-7,.cls-70,.cls-71,.cls-72,.cls-73{stroke-miterlimit:3.86;}.cls-7{stroke-width:11.52px;}.cls-8{clip-path:url(#clip-path-2);}.cls-9{fill:#e896a8;}.cls-10{fill:#f4f4f3;}.cls-11{stroke:#f1ecec;}.cls-11,.cls-24{stroke-width:20.95px;}.cls-12{stroke:#f1e4e6;}.cls-12,.cls-25{stroke-width:18.85px;}.cls-13{stroke:#f0dcdf;}.cls-13,.cls-26{stroke-width:16.76px;}.cls-14{stroke:#f0d4d8;}.cls-14,.cls-27{stroke-width:14.66px;}.cls-15{stroke:#efcdd2;}.cls-15,.cls-28{stroke-width:12.57px;}.cls-16{stroke:#eec4cb;}.cls-16,.cls-29{stroke-width:10.47px;}.cls-17{stroke:#ebbbc4;}.cls-17,.cls-30{stroke-width:8.38px;}.cls-18{stroke:#ebb3bd;}.cls-18,.cls-31{stroke-width:6.29px;}.cls-19{stroke:#eaa9b6;}.cls-19,.cls-32{stroke-width:4.19px;}.cls-20{stroke:#e9a0af;}.cls-20,.cls-33{stroke-width:2.1px;}.cls-21{clip-path:url(#clip-path-3);}.cls-22{fill:#e61764;}.cls-23{fill:#f5b4c1;}.cls-24{stroke:#f4a8b9;}.cls-25{stroke:#f29caf;}.cls-26{stroke:#f18fa6;}.cls-27{stroke:#ef839e;}.cls-28{stroke:#ee7495;}.cls-29{stroke:#ec668b;}.cls-30{stroke:#eb5882;}.cls-31{stroke:#e9487b;}.cls-32{stroke:#e83873;}.cls-33{stroke:#e7246c;}.cls-34{clip-path:url(#clip-path-4);}.cls-35{stroke-width:3.77px;}.cls-36{clip-path:url(#clip-path-5);}.cls-37{fill:#edc8ce;}.cls-38,.cls-65{stroke:#ecbfc6;}.cls-38,.cls-44{stroke-width:6.03px;}.cls-39,.cls-66{stroke:#ecb5c0;}.cls-39,.cls-45{stroke-width:4.52px;}.cls-40,.cls-67{stroke:#eaabb8;}.cls-40,.cls-46{stroke-width:3.01px;}.cls-41,.cls-68{stroke:#e9a1b0;}.cls-41,.cls-47{stroke-width:1.51px;}.cls-42{clip-path:url(#clip-path-6);}.cls-43{fill:#f087a0;}.cls-44,.cls-70{stroke:#ee7293;}.cls-45,.cls-71{stroke:#eb5e86;}.cls-46,.cls-72{stroke:#e9487a;}.cls-47,.cls-73{stroke:#e72e6f;}.cls-48{clip-path:url(#clip-path-7);}.cls-49{stroke-width:7.16px;}.cls-50{clip-path:url(#clip-path-8);}.cls-51{stroke:#ecc0c8;stroke-width:11.93px;}.cls-52{stroke:#ecb8c1;stroke-width:9.55px;}.cls-53{stroke:#ebb0bc;stroke-width:7.16px;}.cls-54{stroke:#e9a8b5;stroke-width:4.77px;}.cls-55{stroke:#e99fae;stroke-width:2.39px;}.cls-56{clip-path:url(#clip-path-9);}.cls-57{stroke:#ee7696;stroke-width:11.93px;}.cls-58{stroke:#ec658a;stroke-width:9.55px;}.cls-59{stroke:#ea5380;stroke-width:7.16px;}.cls-60{stroke:#e93f76;stroke-width:4.77px;}.cls-61{stroke:#e7296d;stroke-width:2.39px;}.cls-62{clip-path:url(#clip-path-10);}.cls-63{stroke-width:3.7px;}.cls-64{clip-path:url(#clip-path-11);}.cls-65,.cls-70{stroke-width:5.93px;}.cls-66,.cls-71{stroke-width:4.44px;}.cls-67,.cls-72{stroke-width:2.96px;}.cls-68,.cls-73{stroke-width:1.48px;}.cls-69{clip-path:url(#clip-path-12);}</style><clipPath id="clip-path" transform="translate(5.05 17.81)"><path id="SVGID" class="cls-1" d="M26.44,34.86l.44-.2a25.86,25.86,0,0,0,5.58,4.24,17.19,17.19,0,0,1-3.55,1.93C15.48,46.17,1.19,34.64,8.25,21.07,2.71,15.49,6,7.11,12.19,3.77L13,.83,15.27,2.6C21.78,1,29.1,4.52,29.57,11.9a10.77,10.77,0,0,1-.13,2.78c-.38,1.41-4,3.65-5.39,3s-1.56-2.24-1.46-3.56a5,5,0,0,0-.15-2.53c-1-2.67-4.21-3.42-6.64-2.41-3.69,1.53-4.65,5.52-1.44,8.12a3.55,3.55,0,0,1,1,4.89c-.94,1.62-1.72,2.66-1.92,4.61C12.67,34,20.54,37.29,26.44,34.86Z"/></clipPath><clipPath id="clip-path-2" transform="translate(5.05 17.81)"><path id="SVGID-2" data-name="SVGID" class="cls-2" d="M26.44,34.47l.44-.2a26.52,26.52,0,0,0,5.58,4.24,17.68,17.68,0,0,1-3.55,1.93C15.48,45.78,1.19,34.25,8.25,20.68,2.71,15.09,6,6.71,12.19,3.37L13,.44,15.27,2.2C21.78.64,29.1,4.13,29.57,11.51a10.72,10.72,0,0,1-.13,2.77c-.38,1.41-4,3.65-5.39,3s-1.56-2.23-1.46-3.55a5,5,0,0,0-.15-2.54c-1-2.67-4.21-3.42-6.64-2.41-3.69,1.53-4.65,5.53-1.44,8.13a3.54,3.54,0,0,1,1,4.88c-.94,1.62-1.72,2.66-1.92,4.61C12.67,33.57,20.54,36.9,26.44,34.47Z"/></clipPath><clipPath id="clip-path-3" transform="translate(5.05 17.81)"><path id="SVGID-3" data-name="SVGID" class="cls-3" d="M26.44,34.07l.44-.2a26.19,26.19,0,0,0,5.58,4.24A17.19,17.19,0,0,1,28.91,40C15.48,45.38,1.19,33.85,8.25,20.28,2.71,14.7,6,6.31,12.19,3L13,0,15.27,1.8C21.78.24,29.1,3.73,29.57,11.11a10.7,10.7,0,0,1-.13,2.77c-.38,1.41-4,3.66-5.39,3s-1.56-2.24-1.46-3.56a5,5,0,0,0-.15-2.54c-1-2.66-4.21-3.41-6.64-2.41-3.69,1.53-4.65,5.53-1.44,8.13a3.54,3.54,0,0,1,1,4.88C14.41,23,13.63,24.07,13.43,26,12.67,33.18,20.54,36.5,26.44,34.07Z"/></clipPath><clipPath id="clip-path-4" transform="translate(5.05 17.81)"><path id="SVGID-4" data-name="SVGID" class="cls-1" d="M4.68,33.5c-2.13-1.87-5-5.25-4.14-7.3A3.75,3.75,0,0,1,.6,22.31C2.17,19.8,4.69,20.53,7,21.87A14.23,14.23,0,0,0,4.68,33.5Z"/></clipPath><clipPath id="clip-path-5" transform="translate(5.05 17.81)"><path id="SVGID-5" data-name="SVGID" class="cls-2" d="M4.68,33.1c-2.13-1.87-5-5.25-4.14-7.29a3.77,3.77,0,0,1,.06-3.9C2.17,19.4,4.69,20.13,7,21.48A14.21,14.21,0,0,0,4.68,33.1Z"/></clipPath><clipPath id="clip-path-6" transform="translate(5.05 17.81)"><path id="SVGID-6" data-name="SVGID" class="cls-3" d="M4.68,32.7c-2.13-1.86-5-5.25-4.14-7.29a3.77,3.77,0,0,1,.06-3.9C2.17,19,4.69,19.74,7,21.08A14.21,14.21,0,0,0,4.68,32.7Z"/></clipPath><clipPath id="clip-path-7" transform="translate(5.05 17.81)"><path id="SVGID-7" data-name="SVGID" class="cls-1" d="M29.45,19.43c1.69-.72,4.47-2.33,6.83-2.57,1.61-.16,2.86,4.38,3.17,6a14.67,14.67,0,0,1-1.53,9.91l-.17.27a35.49,35.49,0,0,0,7.73,3.05l.25.07a12.52,12.52,0,0,0,2.13.43C45.15,44.17,40.37,42,28.12,34a10.7,10.7,0,0,0,3.7-4c.15-.29.29-.58.41-.88a7.73,7.73,0,0,0-1.58-8.49Z"/></clipPath><clipPath id="clip-path-8" transform="translate(5.05 17.81)"><path id="SVGID-8" data-name="SVGID" class="cls-2" d="M29.45,19c1.69-.72,4.47-2.33,6.83-2.57,1.61-.16,2.86,4.38,3.17,6a14.65,14.65,0,0,1-1.53,9.9l-.17.27a35.49,35.49,0,0,0,7.73,3l.25.07a12.52,12.52,0,0,0,2.13.43c-2.71,7.59-7.49,5.44-19.74-2.6a10.81,10.81,0,0,0,3.7-4c.15-.28.29-.58.41-.87a7.73,7.73,0,0,0-1.58-8.49Z"/></clipPath><clipPath id="clip-path-9" transform="translate(5.05 17.81)"><path id="SVGID-9" data-name="SVGID" class="cls-3" d="M29.45,18.64c1.69-.72,4.47-2.33,6.83-2.57,1.61-.17,2.86,4.37,3.17,6A14.64,14.64,0,0,1,37.92,32l-.17.27a35,35,0,0,0,7.73,3l.25.07a11.61,11.61,0,0,0,2.13.43c-2.71,7.59-7.49,5.45-19.74-2.6a10.73,10.73,0,0,0,3.7-4,8.65,8.65,0,0,0,.41-.87,7.73,7.73,0,0,0-1.58-8.49Z"/></clipPath><clipPath id="clip-path-10" transform="translate(5.05 17.81)"><path id="SVGID-10" data-name="SVGID" class="cls-1" d="M44.81,19.79c1.15,1.79-.8,5.45-2.49,7.72a15,15,0,0,0-1-5.27,21.79,21.79,0,0,0-1.79-3.56A8,8,0,0,0,38.12,17a4.24,4.24,0,0,0-.4-.31C39.72,15,42,13.84,44,16A3.75,3.75,0,0,1,44.81,19.79Z"/></clipPath><clipPath id="clip-path-11" transform="translate(5.05 17.81)"><path id="SVGID-11" data-name="SVGID" class="cls-2" d="M44.81,19.39c1.15,1.79-.8,5.45-2.49,7.72a15,15,0,0,0-1-5.27,22.2,22.2,0,0,0-1.79-3.56,8,8,0,0,0-1.37-1.67,3,3,0,0,0-.4-.3c2-1.73,4.29-2.86,6.29-.73A3.75,3.75,0,0,1,44.81,19.39Z"/></clipPath><clipPath id="clip-path-12" transform="translate(5.05 17.81)"><path id="SVGID-12" data-name="SVGID" class="cls-3" d="M44.81,19c1.15,1.78-.8,5.45-2.49,7.71a15,15,0,0,0-1-5.26,21.83,21.83,0,0,0-1.79-3.57,8.49,8.49,0,0,0-1.37-1.67,4.17,4.17,0,0,0-.4-.3c2-1.72,4.29-2.86,6.29-.73A3.77,3.77,0,0,1,44.81,19Z"/></clipPath></defs><g id="Ebene_2" data-name="Ebene 2"><g id="OBERE_FORM" data-name="OBERE FORM"><g class="cls-4"><path class="cls-5" d="M26.44,34.86l.44-.2a25.86,25.86,0,0,0,5.58,4.24,17.19,17.19,0,0,1-3.55,1.93C15.48,46.17,1.19,34.64,8.25,21.07,2.71,15.49,6,7.11,12.19,3.77L13,.83,15.27,2.6C21.78,1,29.1,4.52,29.57,11.9a10.77,10.77,0,0,1-.13,2.78c-.38,1.41-4,3.65-5.39,3s-1.56-2.24-1.46-3.56a5,5,0,0,0-.15-2.53c-1-2.67-4.21-3.42-6.64-2.41-3.69,1.53-4.65,5.52-1.44,8.12a3.55,3.55,0,0,1,1,4.89c-.94,1.62-1.72,2.66-1.92,4.61C12.67,34,20.54,37.29,26.44,34.86Z" transform="translate(5.05 17.81)"/><path class="cls-6" d="M26.44,34.86l.44-.2a25.86,25.86,0,0,0,5.58,4.24,17.19,17.19,0,0,1-3.55,1.93C15.48,46.17,1.19,34.64,8.25,21.07,2.71,15.49,6,7.11,12.19,3.77L13,.83,15.27,2.6C21.78,1,29.1,4.52,29.57,11.9a10.77,10.77,0,0,1-.13,2.78c-.38,1.41-4,3.65-5.39,3s-1.56-2.24-1.46-3.56a5,5,0,0,0-.15-2.53c-1-2.67-4.21-3.42-6.64-2.41-3.69,1.53-4.65,5.52-1.44,8.12a3.55,3.55,0,0,1,1,4.89c-.94,1.62-1.72,2.66-1.92,4.61C12.67,34,20.54,37.29,26.44,34.86Z" transform="translate(5.05 17.81)"/><path class="cls-6" d="M26.44,34.86l.44-.2a25.86,25.86,0,0,0,5.58,4.24,17.19,17.19,0,0,1-3.55,1.93C15.48,46.17,1.19,34.64,8.25,21.07,2.71,15.49,6,7.11,12.19,3.77L13,.83,15.27,2.6C21.78,1,29.1,4.52,29.57,11.9a10.77,10.77,0,0,1-.13,2.78c-.38,1.41-4,3.65-5.39,3s-1.56-2.24-1.46-3.56a5,5,0,0,0-.15-2.53c-1-2.67-4.21-3.42-6.64-2.41-3.69,1.53-4.65,5.52-1.44,8.12a3.55,3.55,0,0,1,1,4.89c-.94,1.62-1.72,2.66-1.92,4.61C12.67,34,20.54,37.29,26.44,34.86Z" transform="translate(5.05 17.81)"/><path class="cls-7" d="M26.44,34.86l.44-.2a25.86,25.86,0,0,0,5.58,4.24,17.19,17.19,0,0,1-3.55,1.93C15.48,46.17,1.19,34.64,8.25,21.07,2.71,15.49,6,7.11,12.19,3.77L13,.83,15.27,2.6C21.78,1,29.1,4.52,29.57,11.9a10.77,10.77,0,0,1-.13,2.78c-.38,1.41-4,3.65-5.39,3s-1.56-2.24-1.46-3.56a5,5,0,0,0-.15-2.53c-1-2.67-4.21-3.42-6.64-2.41-3.69,1.53-4.65,5.52-1.44,8.12a3.55,3.55,0,0,1,1,4.89c-.94,1.62-1.72,2.66-1.92,4.61C12.67,34,20.54,37.29,26.44,34.86Z" transform="translate(5.05 17.81)"/></g><path id="SVGID-13" data-name="SVGID" class="cls-1" d="M26.44,34.86l.44-.2a25.86,25.86,0,0,0,5.58,4.24,17.19,17.19,0,0,1-3.55,1.93C15.48,46.17,1.19,34.64,8.25,21.07,2.71,15.49,6,7.11,12.19,3.77L13,.83,15.27,2.6C21.78,1,29.1,4.52,29.57,11.9a10.77,10.77,0,0,1-.13,2.78c-.38,1.41-4,3.65-5.39,3s-1.56-2.24-1.46-3.56a5,5,0,0,0-.15-2.53c-1-2.67-4.21-3.42-6.64-2.41-3.69,1.53-4.65,5.52-1.44,8.12a3.55,3.55,0,0,1,1,4.89c-.94,1.62-1.72,2.66-1.92,4.61C12.67,34,20.54,37.29,26.44,34.86Z" transform="translate(5.05 17.81)"/><path class="cls-5" d="M26.44,34.86l.44-.2a25.86,25.86,0,0,0,5.58,4.24,17.19,17.19,0,0,1-3.55,1.93C15.48,46.17,1.19,34.64,8.25,21.07,2.71,15.49,6,7.11,12.19,3.77L13,.83,15.27,2.6C21.78,1,29.1,4.52,29.57,11.9a10.77,10.77,0,0,1-.13,2.78c-.38,1.41-4,3.65-5.39,3s-1.56-2.24-1.46-3.56a5,5,0,0,0-.15-2.53c-1-2.67-4.21-3.42-6.64-2.41-3.69,1.53-4.65,5.52-1.44,8.12a3.55,3.55,0,0,1,1,4.89c-.94,1.62-1.72,2.66-1.92,4.61C12.67,34,20.54,37.29,26.44,34.86Z" transform="translate(5.05 17.81)"/><g class="cls-8"><path class="cls-5" d="M26.44,34.47l.44-.2a26.52,26.52,0,0,0,5.58,4.24,17.68,17.68,0,0,1-3.55,1.93C15.48,45.78,1.19,34.25,8.25,20.68,2.71,15.09,6,6.71,12.19,3.37L13,.44,15.27,2.2C21.78.64,29.1,4.13,29.57,11.51a10.72,10.72,0,0,1-.13,2.77c-.38,1.41-4,3.65-5.39,3s-1.56-2.23-1.46-3.55a5,5,0,0,0-.15-2.54c-1-2.67-4.21-3.42-6.64-2.41-3.69,1.53-4.65,5.53-1.44,8.13a3.54,3.54,0,0,1,1,4.88c-.94,1.62-1.72,2.66-1.92,4.61C12.67,33.57,20.54,36.9,26.44,34.47Z" transform="translate(5.05 17.81)"/><path class="cls-9" d="M26.44,34.47l.44-.2a26.52,26.52,0,0,0,5.58,4.24,17.68,17.68,0,0,1-3.55,1.93C15.48,45.78,1.19,34.25,8.25,20.68,2.71,15.09,6,6.71,12.19,3.37L13,.44,15.27,2.2C21.78.64,29.1,4.13,29.57,11.51a10.72,10.72,0,0,1-.13,2.77c-.38,1.41-4,3.65-5.39,3s-1.56-2.23-1.46-3.55a5,5,0,0,0-.15-2.54c-1-2.67-4.21-3.42-6.64-2.41-3.69,1.53-4.65,5.53-1.44,8.13a3.54,3.54,0,0,1,1,4.88c-.94,1.62-1.72,2.66-1.92,4.61C12.67,33.57,20.54,36.9,26.44,34.47Z" transform="translate(5.05 17.81)"/><path class="cls-10" d="M26.44,34.47l.44-.2a26.52,26.52,0,0,0,5.58,4.24,17.68,17.68,0,0,1-3.55,1.93C15.48,45.78,1.19,34.25,8.25,20.68,2.71,15.09,6,6.71,12.19,3.37L13,.44,15.27,2.2C21.78.64,29.1,4.13,29.57,11.51a10.72,10.72,0,0,1-.13,2.77c-.38,1.41-4,3.65-5.39,3s-1.56-2.23-1.46-3.55a5,5,0,0,0-.15-2.54c-1-2.67-4.21-3.42-6.64-2.41-3.69,1.53-4.65,5.53-1.44,8.13a3.54,3.54,0,0,1,1,4.88c-.94,1.62-1.72,2.66-1.92,4.61C12.67,33.57,20.54,36.9,26.44,34.47Z" transform="translate(5.05 17.81)"/><path class="cls-11" d="M26.44,34.47l.44-.2a26.52,26.52,0,0,0,5.58,4.24,17.68,17.68,0,0,1-3.55,1.93C15.48,45.78,1.19,34.25,8.25,20.68,2.71,15.09,6,6.71,12.19,3.37L13,.44,15.27,2.2C21.78.64,29.1,4.13,29.57,11.51a10.72,10.72,0,0,1-.13,2.77c-.38,1.41-4,3.65-5.39,3s-1.56-2.23-1.46-3.55a5,5,0,0,0-.15-2.54c-1-2.67-4.21-3.42-6.64-2.41-3.69,1.53-4.65,5.53-1.44,8.13a3.54,3.54,0,0,1,1,4.88c-.94,1.62-1.72,2.66-1.92,4.61C12.67,33.57,20.54,36.9,26.44,34.47Z" transform="translate(5.05 17.81)"/><path class="cls-12" d="M26.44,34.47l.44-.2a26.52,26.52,0,0,0,5.58,4.24,17.68,17.68,0,0,1-3.55,1.93C15.48,45.78,1.19,34.25,8.25,20.68,2.71,15.09,6,6.71,12.19,3.37L13,.44,15.27,2.2C21.78.64,29.1,4.13,29.57,11.51a10.72,10.72,0,0,1-.13,2.77c-.38,1.41-4,3.65-5.39,3s-1.56-2.23-1.46-3.55a5,5,0,0,0-.15-2.54c-1-2.67-4.21-3.42-6.64-2.41-3.69,1.53-4.65,5.53-1.44,8.13a3.54,3.54,0,0,1,1,4.88c-.94,1.62-1.72,2.66-1.92,4.61C12.67,33.57,20.54,36.9,26.44,34.47Z" transform="translate(5.05 17.81)"/><path class="cls-13" d="M26.44,34.47l.44-.2a26.52,26.52,0,0,0,5.58,4.24,17.68,17.68,0,0,1-3.55,1.93C15.48,45.78,1.19,34.25,8.25,20.68,2.71,15.09,6,6.71,12.19,3.37L13,.44,15.27,2.2C21.78.64,29.1,4.13,29.57,11.51a10.72,10.72,0,0,1-.13,2.77c-.38,1.41-4,3.65-5.39,3s-1.56-2.23-1.46-3.55a5,5,0,0,0-.15-2.54c-1-2.67-4.21-3.42-6.64-2.41-3.69,1.53-4.65,5.53-1.44,8.13a3.54,3.54,0,0,1,1,4.88c-.94,1.62-1.72,2.66-1.92,4.61C12.67,33.57,20.54,36.9,26.44,34.47Z" transform="translate(5.05 17.81)"/><path class="cls-14" d="M26.44,34.47l.44-.2a26.52,26.52,0,0,0,5.58,4.24,17.68,17.68,0,0,1-3.55,1.93C15.48,45.78,1.19,34.25,8.25,20.68,2.71,15.09,6,6.71,12.19,3.37L13,.44,15.27,2.2C21.78.64,29.1,4.13,29.57,11.51a10.72,10.72,0,0,1-.13,2.77c-.38,1.41-4,3.65-5.39,3s-1.56-2.23-1.46-3.55a5,5,0,0,0-.15-2.54c-1-2.67-4.21-3.42-6.64-2.41-3.69,1.53-4.65,5.53-1.44,8.13a3.54,3.54,0,0,1,1,4.88c-.94,1.62-1.72,2.66-1.92,4.61C12.67,33.57,20.54,36.9,26.44,34.47Z" transform="translate(5.05 17.81)"/><path class="cls-15" d="M26.44,34.47l.44-.2a26.52,26.52,0,0,0,5.58,4.24,17.68,17.68,0,0,1-3.55,1.93C15.48,45.78,1.19,34.25,8.25,20.68,2.71,15.09,6,6.71,12.19,3.37L13,.44,15.27,2.2C21.78.64,29.1,4.13,29.57,11.51a10.72,10.72,0,0,1-.13,2.77c-.38,1.41-4,3.65-5.39,3s-1.56-2.23-1.46-3.55a5,5,0,0,0-.15-2.54c-1-2.67-4.21-3.42-6.64-2.41-3.69,1.53-4.65,5.53-1.44,8.13a3.54,3.54,0,0,1,1,4.88c-.94,1.62-1.72,2.66-1.92,4.61C12.67,33.57,20.54,36.9,26.44,34.47Z" transform="translate(5.05 17.81)"/><path class="cls-16" d="M26.44,34.47l.44-.2a26.52,26.52,0,0,0,5.58,4.24,17.68,17.68,0,0,1-3.55,1.93C15.48,45.78,1.19,34.25,8.25,20.68,2.71,15.09,6,6.71,12.19,3.37L13,.44,15.27,2.2C21.78.64,29.1,4.13,29.57,11.51a10.72,10.72,0,0,1-.13,2.77c-.38,1.41-4,3.65-5.39,3s-1.56-2.23-1.46-3.55a5,5,0,0,0-.15-2.54c-1-2.67-4.21-3.42-6.64-2.41-3.69,1.53-4.65,5.53-1.44,8.13a3.54,3.54,0,0,1,1,4.88c-.94,1.62-1.72,2.66-1.92,4.61C12.67,33.57,20.54,36.9,26.44,34.47Z" transform="translate(5.05 17.81)"/><path class="cls-17" d="M26.44,34.47l.44-.2a26.52,26.52,0,0,0,5.58,4.24,17.68,17.68,0,0,1-3.55,1.93C15.48,45.78,1.19,34.25,8.25,20.68,2.71,15.09,6,6.71,12.19,3.37L13,.44,15.27,2.2C21.78.64,29.1,4.13,29.57,11.51a10.72,10.72,0,0,1-.13,2.77c-.38,1.41-4,3.65-5.39,3s-1.56-2.23-1.46-3.55a5,5,0,0,0-.15-2.54c-1-2.67-4.21-3.42-6.64-2.41-3.69,1.53-4.65,5.53-1.44,8.13a3.54,3.54,0,0,1,1,4.88c-.94,1.62-1.72,2.66-1.92,4.61C12.67,33.57,20.54,36.9,26.44,34.47Z" transform="translate(5.05 17.81)"/><path class="cls-18" d="M26.44,34.47l.44-.2a26.52,26.52,0,0,0,5.58,4.24,17.68,17.68,0,0,1-3.55,1.93C15.48,45.78,1.19,34.25,8.25,20.68,2.71,15.09,6,6.71,12.19,3.37L13,.44,15.27,2.2C21.78.64,29.1,4.13,29.57,11.51a10.72,10.72,0,0,1-.13,2.77c-.38,1.41-4,3.65-5.39,3s-1.56-2.23-1.46-3.55a5,5,0,0,0-.15-2.54c-1-2.67-4.21-3.42-6.64-2.41-3.69,1.53-4.65,5.53-1.44,8.13a3.54,3.54,0,0,1,1,4.88c-.94,1.62-1.72,2.66-1.92,4.61C12.67,33.57,20.54,36.9,26.44,34.47Z" transform="translate(5.05 17.81)"/><path class="cls-19" d="M26.44,34.47l.44-.2a26.52,26.52,0,0,0,5.58,4.24,17.68,17.68,0,0,1-3.55,1.93C15.48,45.78,1.19,34.25,8.25,20.68,2.71,15.09,6,6.71,12.19,3.37L13,.44,15.27,2.2C21.78.64,29.1,4.13,29.57,11.51a10.72,10.72,0,0,1-.13,2.77c-.38,1.41-4,3.65-5.39,3s-1.56-2.23-1.46-3.55a5,5,0,0,0-.15-2.54c-1-2.67-4.21-3.42-6.64-2.41-3.69,1.53-4.65,5.53-1.44,8.13a3.54,3.54,0,0,1,1,4.88c-.94,1.62-1.72,2.66-1.92,4.61C12.67,33.57,20.54,36.9,26.44,34.47Z" transform="translate(5.05 17.81)"/><path class="cls-20" d="M26.44,34.47l.44-.2a26.52,26.52,0,0,0,5.58,4.24,17.68,17.68,0,0,1-3.55,1.93C15.48,45.78,1.19,34.25,8.25,20.68,2.71,15.09,6,6.71,12.19,3.37L13,.44,15.27,2.2C21.78.64,29.1,4.13,29.57,11.51a10.72,10.72,0,0,1-.13,2.77c-.38,1.41-4,3.65-5.39,3s-1.56-2.23-1.46-3.55a5,5,0,0,0-.15-2.54c-1-2.67-4.21-3.42-6.64-2.41-3.69,1.53-4.65,5.53-1.44,8.13a3.54,3.54,0,0,1,1,4.88c-.94,1.62-1.72,2.66-1.92,4.61C12.67,33.57,20.54,36.9,26.44,34.47Z" transform="translate(5.05 17.81)"/></g><path id="SVGID-14" data-name="SVGID" class="cls-2" d="M26.44,34.47l.44-.2a26.52,26.52,0,0,0,5.58,4.24,17.68,17.68,0,0,1-3.55,1.93C15.48,45.78,1.19,34.25,8.25,20.68,2.71,15.09,6,6.71,12.19,3.37L13,.44,15.27,2.2C21.78.64,29.1,4.13,29.57,11.51a10.72,10.72,0,0,1-.13,2.77c-.38,1.41-4,3.65-5.39,3s-1.56-2.23-1.46-3.55a5,5,0,0,0-.15-2.54c-1-2.67-4.21-3.42-6.64-2.41-3.69,1.53-4.65,5.53-1.44,8.13a3.54,3.54,0,0,1,1,4.88c-.94,1.62-1.72,2.66-1.92,4.61C12.67,33.57,20.54,36.9,26.44,34.47Z" transform="translate(5.05 17.81)"/><path class="cls-5" d="M26.44,34.47l.44-.2a26.52,26.52,0,0,0,5.58,4.24,17.68,17.68,0,0,1-3.55,1.93C15.48,45.78,1.19,34.25,8.25,20.68,2.71,15.09,6,6.71,12.19,3.37L13,.44,15.27,2.2C21.78.64,29.1,4.13,29.57,11.51a10.72,10.72,0,0,1-.13,2.77c-.38,1.41-4,3.65-5.39,3s-1.56-2.23-1.46-3.55a5,5,0,0,0-.15-2.54c-1-2.67-4.21-3.42-6.64-2.41-3.69,1.53-4.65,5.53-1.44,8.13a3.54,3.54,0,0,1,1,4.88c-.94,1.62-1.72,2.66-1.92,4.61C12.67,33.57,20.54,36.9,26.44,34.47Z" transform="translate(5.05 17.81)"/><g class="cls-21"><path class="cls-5" d="M26.44,34.07l.44-.2a26.19,26.19,0,0,0,5.58,4.24A17.19,17.19,0,0,1,28.91,40C15.48,45.38,1.19,33.85,8.25,20.28,2.71,14.7,6,6.31,12.19,3L13,0,15.27,1.8C21.78.24,29.1,3.73,29.57,11.11a10.7,10.7,0,0,1-.13,2.77c-.38,1.41-4,3.66-5.39,3s-1.56-2.24-1.46-3.56a5,5,0,0,0-.15-2.54c-1-2.66-4.21-3.41-6.64-2.41-3.69,1.53-4.65,5.53-1.44,8.13a3.54,3.54,0,0,1,1,4.88C14.41,23,13.63,24.07,13.43,26,12.67,33.18,20.54,36.5,26.44,34.07Z" transform="translate(5.05 17.81)"/><path class="cls-22" d="M26.44,34.07l.44-.2a26.19,26.19,0,0,0,5.58,4.24A17.19,17.19,0,0,1,28.91,40C15.48,45.38,1.19,33.85,8.25,20.28,2.71,14.7,6,6.31,12.19,3L13,0,15.27,1.8C21.78.24,29.1,3.73,29.57,11.11a10.7,10.7,0,0,1-.13,2.77c-.38,1.41-4,3.66-5.39,3s-1.56-2.24-1.46-3.56a5,5,0,0,0-.15-2.54c-1-2.66-4.21-3.41-6.64-2.41-3.69,1.53-4.65,5.53-1.44,8.13a3.54,3.54,0,0,1,1,4.88C14.41,23,13.63,24.07,13.43,26,12.67,33.18,20.54,36.5,26.44,34.07Z" transform="translate(5.05 17.81)"/><path class="cls-23" d="M26.44,34.07l.44-.2a26.19,26.19,0,0,0,5.58,4.24A17.19,17.19,0,0,1,28.91,40C15.48,45.38,1.19,33.85,8.25,20.28,2.71,14.7,6,6.31,12.19,3L13,0,15.27,1.8C21.78.24,29.1,3.73,29.57,11.11a10.7,10.7,0,0,1-.13,2.77c-.38,1.41-4,3.66-5.39,3s-1.56-2.24-1.46-3.56a5,5,0,0,0-.15-2.54c-1-2.66-4.21-3.41-6.64-2.41-3.69,1.53-4.65,5.53-1.44,8.13a3.54,3.54,0,0,1,1,4.88C14.41,23,13.63,24.07,13.43,26,12.67,33.18,20.54,36.5,26.44,34.07Z" transform="translate(5.05 17.81)"/><path class="cls-24" d="M26.44,34.07l.44-.2a26.19,26.19,0,0,0,5.58,4.24A17.19,17.19,0,0,1,28.91,40C15.48,45.38,1.19,33.85,8.25,20.28,2.71,14.7,6,6.31,12.19,3L13,0,15.27,1.8C21.78.24,29.1,3.73,29.57,11.11a10.7,10.7,0,0,1-.13,2.77c-.38,1.41-4,3.66-5.39,3s-1.56-2.24-1.46-3.56a5,5,0,0,0-.15-2.54c-1-2.66-4.21-3.41-6.64-2.41-3.69,1.53-4.65,5.53-1.44,8.13a3.54,3.54,0,0,1,1,4.88C14.41,23,13.63,24.07,13.43,26,12.67,33.18,20.54,36.5,26.44,34.07Z" transform="translate(5.05 17.81)"/><path class="cls-25" d="M26.44,34.07l.44-.2a26.19,26.19,0,0,0,5.58,4.24A17.19,17.19,0,0,1,28.91,40C15.48,45.38,1.19,33.85,8.25,20.28,2.71,14.7,6,6.31,12.19,3L13,0,15.27,1.8C21.78.24,29.1,3.73,29.57,11.11a10.7,10.7,0,0,1-.13,2.77c-.38,1.41-4,3.66-5.39,3s-1.56-2.24-1.46-3.56a5,5,0,0,0-.15-2.54c-1-2.66-4.21-3.41-6.64-2.41-3.69,1.53-4.65,5.53-1.44,8.13a3.54,3.54,0,0,1,1,4.88C14.41,23,13.63,24.07,13.43,26,12.67,33.18,20.54,36.5,26.44,34.07Z" transform="translate(5.05 17.81)"/><path class="cls-26" d="M26.44,34.07l.44-.2a26.19,26.19,0,0,0,5.58,4.24A17.19,17.19,0,0,1,28.91,40C15.48,45.38,1.19,33.85,8.25,20.28,2.71,14.7,6,6.31,12.19,3L13,0,15.27,1.8C21.78.24,29.1,3.73,29.57,11.11a10.7,10.7,0,0,1-.13,2.77c-.38,1.41-4,3.66-5.39,3s-1.56-2.24-1.46-3.56a5,5,0,0,0-.15-2.54c-1-2.66-4.21-3.41-6.64-2.41-3.69,1.53-4.65,5.53-1.44,8.13a3.54,3.54,0,0,1,1,4.88C14.41,23,13.63,24.07,13.43,26,12.67,33.18,20.54,36.5,26.44,34.07Z" transform="translate(5.05 17.81)"/><path class="cls-27" d="M26.44,34.07l.44-.2a26.19,26.19,0,0,0,5.58,4.24A17.19,17.19,0,0,1,28.91,40C15.48,45.38,1.19,33.85,8.25,20.28,2.71,14.7,6,6.31,12.19,3L13,0,15.27,1.8C21.78.24,29.1,3.73,29.57,11.11a10.7,10.7,0,0,1-.13,2.77c-.38,1.41-4,3.66-5.39,3s-1.56-2.24-1.46-3.56a5,5,0,0,0-.15-2.54c-1-2.66-4.21-3.41-6.64-2.41-3.69,1.53-4.65,5.53-1.44,8.13a3.54,3.54,0,0,1,1,4.88C14.41,23,13.63,24.07,13.43,26,12.67,33.18,20.54,36.5,26.44,34.07Z" transform="translate(5.05 17.81)"/><path class="cls-28" d="M26.44,34.07l.44-.2a26.19,26.19,0,0,0,5.58,4.24A17.19,17.19,0,0,1,28.91,40C15.48,45.38,1.19,33.85,8.25,20.28,2.71,14.7,6,6.31,12.19,3L13,0,15.27,1.8C21.78.24,29.1,3.73,29.57,11.11a10.7,10.7,0,0,1-.13,2.77c-.38,1.41-4,3.66-5.39,3s-1.56-2.24-1.46-3.56a5,5,0,0,0-.15-2.54c-1-2.66-4.21-3.41-6.64-2.41-3.69,1.53-4.65,5.53-1.44,8.13a3.54,3.54,0,0,1,1,4.88C14.41,23,13.63,24.07,13.43,26,12.67,33.18,20.54,36.5,26.44,34.07Z" transform="translate(5.05 17.81)"/><path class="cls-29" d="M26.44,34.07l.44-.2a26.19,26.19,0,0,0,5.58,4.24A17.19,17.19,0,0,1,28.91,40C15.48,45.38,1.19,33.85,8.25,20.28,2.71,14.7,6,6.31,12.19,3L13,0,15.27,1.8C21.78.24,29.1,3.73,29.57,11.11a10.7,10.7,0,0,1-.13,2.77c-.38,1.41-4,3.66-5.39,3s-1.56-2.24-1.46-3.56a5,5,0,0,0-.15-2.54c-1-2.66-4.21-3.41-6.64-2.41-3.69,1.53-4.65,5.53-1.44,8.13a3.54,3.54,0,0,1,1,4.88C14.41,23,13.63,24.07,13.43,26,12.67,33.18,20.54,36.5,26.44,34.07Z" transform="translate(5.05 17.81)"/><path class="cls-30" d="M26.44,34.07l.44-.2a26.19,26.19,0,0,0,5.58,4.24A17.19,17.19,0,0,1,28.91,40C15.48,45.38,1.19,33.85,8.25,20.28,2.71,14.7,6,6.31,12.19,3L13,0,15.27,1.8C21.78.24,29.1,3.73,29.57,11.11a10.7,10.7,0,0,1-.13,2.77c-.38,1.41-4,3.66-5.39,3s-1.56-2.24-1.46-3.56a5,5,0,0,0-.15-2.54c-1-2.66-4.21-3.41-6.64-2.41-3.69,1.53-4.65,5.53-1.44,8.13a3.54,3.54,0,0,1,1,4.88C14.41,23,13.63,24.07,13.43,26,12.67,33.18,20.54,36.5,26.44,34.07Z" transform="translate(5.05 17.81)"/><path class="cls-31" d="M26.44,34.07l.44-.2a26.19,26.19,0,0,0,5.58,4.24A17.19,17.19,0,0,1,28.91,40C15.48,45.38,1.19,33.85,8.25,20.28,2.71,14.7,6,6.31,12.19,3L13,0,15.27,1.8C21.78.24,29.1,3.73,29.57,11.11a10.7,10.7,0,0,1-.13,2.77c-.38,1.41-4,3.66-5.39,3s-1.56-2.24-1.46-3.56a5,5,0,0,0-.15-2.54c-1-2.66-4.21-3.41-6.64-2.41-3.69,1.53-4.65,5.53-1.44,8.13a3.54,3.54,0,0,1,1,4.88C14.41,23,13.63,24.07,13.43,26,12.67,33.18,20.54,36.5,26.44,34.07Z" transform="translate(5.05 17.81)"/><path class="cls-32" d="M26.44,34.07l.44-.2a26.19,26.19,0,0,0,5.58,4.24A17.19,17.19,0,0,1,28.91,40C15.48,45.38,1.19,33.85,8.25,20.28,2.71,14.7,6,6.31,12.19,3L13,0,15.27,1.8C21.78.24,29.1,3.73,29.57,11.11a10.7,10.7,0,0,1-.13,2.77c-.38,1.41-4,3.66-5.39,3s-1.56-2.24-1.46-3.56a5,5,0,0,0-.15-2.54c-1-2.66-4.21-3.41-6.64-2.41-3.69,1.53-4.65,5.53-1.44,8.13a3.54,3.54,0,0,1,1,4.88C14.41,23,13.63,24.07,13.43,26,12.67,33.18,20.54,36.5,26.44,34.07Z" transform="translate(5.05 17.81)"/><path class="cls-33" d="M26.44,34.07l.44-.2a26.19,26.19,0,0,0,5.58,4.24A17.19,17.19,0,0,1,28.91,40C15.48,45.38,1.19,33.85,8.25,20.28,2.71,14.7,6,6.31,12.19,3L13,0,15.27,1.8C21.78.24,29.1,3.73,29.57,11.11a10.7,10.7,0,0,1-.13,2.77c-.38,1.41-4,3.66-5.39,3s-1.56-2.24-1.46-3.56a5,5,0,0,0-.15-2.54c-1-2.66-4.21-3.41-6.64-2.41-3.69,1.53-4.65,5.53-1.44,8.13a3.54,3.54,0,0,1,1,4.88C14.41,23,13.63,24.07,13.43,26,12.67,33.18,20.54,36.5,26.44,34.07Z" transform="translate(5.05 17.81)"/></g><path id="SVGID-15" data-name="SVGID" class="cls-3" d="M26.44,34.07l.44-.2a26.19,26.19,0,0,0,5.58,4.24A17.19,17.19,0,0,1,28.91,40C15.48,45.38,1.19,33.85,8.25,20.28,2.71,14.7,6,6.31,12.19,3L13,0,15.27,1.8C21.78.24,29.1,3.73,29.57,11.11a10.7,10.7,0,0,1-.13,2.77c-.38,1.41-4,3.66-5.39,3s-1.56-2.24-1.46-3.56a5,5,0,0,0-.15-2.54c-1-2.66-4.21-3.41-6.64-2.41-3.69,1.53-4.65,5.53-1.44,8.13a3.54,3.54,0,0,1,1,4.88C14.41,23,13.63,24.07,13.43,26,12.67,33.18,20.54,36.5,26.44,34.07Z" transform="translate(5.05 17.81)"/><path class="cls-5" d="M26.44,34.07l.44-.2a26.19,26.19,0,0,0,5.58,4.24A17.19,17.19,0,0,1,28.91,40C15.48,45.38,1.19,33.85,8.25,20.28,2.71,14.7,6,6.31,12.19,3L13,0,15.27,1.8C21.78.24,29.1,3.73,29.57,11.11a10.7,10.7,0,0,1-.13,2.77c-.38,1.41-4,3.66-5.39,3s-1.56-2.24-1.46-3.56a5,5,0,0,0-.15-2.54c-1-2.66-4.21-3.41-6.64-2.41-3.69,1.53-4.65,5.53-1.44,8.13a3.54,3.54,0,0,1,1,4.88C14.41,23,13.63,24.07,13.43,26,12.67,33.18,20.54,36.5,26.44,34.07Z" transform="translate(5.05 17.81)"/><g class="cls-34"><path class="cls-5" d="M4.68,33.5c-2.13-1.87-5-5.25-4.14-7.3A3.75,3.75,0,0,1,.6,22.31C2.17,19.8,4.69,20.53,7,21.87A14.23,14.23,0,0,0,4.68,33.5Z" transform="translate(5.05 17.81)"/><path class="cls-6" d="M4.68,33.5c-2.13-1.87-5-5.25-4.14-7.3A3.75,3.75,0,0,1,.6,22.31C2.17,19.8,4.69,20.53,7,21.87A14.23,14.23,0,0,0,4.68,33.5Z" transform="translate(5.05 17.81)"/><path class="cls-6" d="M4.61,29.9C2.48,28-.35,24.65.47,22.61a3.77,3.77,0,0,1,.06-3.9c1.57-2.51,4.09-1.78,6.41-.44A14.27,14.27,0,0,0,4.61,29.9Z" transform="translate(5.05 17.81)"/><path class="cls-35" d="M4.64,31.7C2.51,29.83-.31,26.45.5,24.4a3.75,3.75,0,0,1,.06-3.89C2.14,18,4.65,18.73,7,20.07A14.3,14.3,0,0,0,4.64,31.7Z" transform="translate(5.05 17.81)"/></g><path id="SVGID-16" data-name="SVGID" class="cls-1" d="M4.68,33.5c-2.13-1.87-5-5.25-4.14-7.3A3.75,3.75,0,0,1,.6,22.31C2.17,19.8,4.69,20.53,7,21.87A14.23,14.23,0,0,0,4.68,33.5Z" transform="translate(5.05 17.81)"/><path class="cls-5" d="M4.68,33.5c-2.13-1.87-5-5.25-4.14-7.3A3.75,3.75,0,0,1,.6,22.31C2.17,19.8,4.69,20.53,7,21.87A14.23,14.23,0,0,0,4.68,33.5Z" transform="translate(5.05 17.81)"/><g class="cls-36"><path class="cls-5" d="M4.68,33.1c-2.13-1.87-5-5.25-4.14-7.29a3.77,3.77,0,0,1,.06-3.9C2.17,19.4,4.69,20.13,7,21.48A14.21,14.21,0,0,0,4.68,33.1Z" transform="translate(5.05 17.81)"/><path class="cls-9" d="M4.68,33.1c-2.13-1.87-5-5.25-4.14-7.29a3.77,3.77,0,0,1,.06-3.9C2.17,19.4,4.69,20.13,7,21.48A14.21,14.21,0,0,0,4.68,33.1Z" transform="translate(5.05 17.81)"/><path class="cls-37" d="M4.61,29.5c-2.13-1.87-5-5.25-4.14-7.29a3.77,3.77,0,0,1,.06-3.9c1.57-2.5,4.09-1.78,6.41-.43A14.25,14.25,0,0,0,4.61,29.5Z" transform="translate(5.05 17.81)"/><path class="cls-38" d="M4.62,30.22C2.49,28.35-.33,25,.48,22.93A3.77,3.77,0,0,1,.54,19c1.57-2.5,4.09-1.78,6.41-.43A14.28,14.28,0,0,0,4.62,30.22Z" transform="translate(5.05 17.81)"/><path class="cls-39" d="M4.64,30.94c-2.13-1.87-5-5.25-4.15-7.29a3.77,3.77,0,0,1,.07-3.9C2.13,17.24,4.65,18,7,19.32A14.24,14.24,0,0,0,4.64,30.94Z" transform="translate(5.05 17.81)"/><path class="cls-40" d="M4.65,31.66c-2.13-1.87-5-5.25-4.14-7.29a3.77,3.77,0,0,1,.06-3.9C2.14,18,4.66,18.69,7,20A14.25,14.25,0,0,0,4.65,31.66Z" transform="translate(5.05 17.81)"/><path class="cls-41" d="M4.66,32.38C2.53,30.51-.29,27.13.52,25.09a3.75,3.75,0,0,1,.07-3.9c1.57-2.51,4.08-1.78,6.4-.43A14.28,14.28,0,0,0,4.66,32.38Z" transform="translate(5.05 17.81)"/></g><path id="SVGID-17" data-name="SVGID" class="cls-2" d="M4.68,33.1c-2.13-1.87-5-5.25-4.14-7.29a3.77,3.77,0,0,1,.06-3.9C2.17,19.4,4.69,20.13,7,21.48A14.21,14.21,0,0,0,4.68,33.1Z" transform="translate(5.05 17.81)"/><path class="cls-5" d="M4.68,33.1c-2.13-1.87-5-5.25-4.14-7.29a3.77,3.77,0,0,1,.06-3.9C2.17,19.4,4.69,20.13,7,21.48A14.21,14.21,0,0,0,4.68,33.1Z" transform="translate(5.05 17.81)"/><g class="cls-42"><path class="cls-5" d="M4.68,32.7c-2.13-1.86-5-5.25-4.14-7.29a3.77,3.77,0,0,1,.06-3.9C2.17,19,4.69,19.74,7,21.08A14.21,14.21,0,0,0,4.68,32.7Z" transform="translate(5.05 17.81)"/><path class="cls-22" d="M4.68,32.7c-2.13-1.86-5-5.25-4.14-7.29a3.77,3.77,0,0,1,.06-3.9C2.17,19,4.69,19.74,7,21.08A14.21,14.21,0,0,0,4.68,32.7Z" transform="translate(5.05 17.81)"/><path class="cls-43" d="M4.61,29.11c-2.13-1.87-5-5.26-4.14-7.3a3.77,3.77,0,0,1,.06-3.9c1.57-2.5,4.09-1.77,6.41-.43A14.26,14.26,0,0,0,4.61,29.11Z" transform="translate(5.05 17.81)"/><path class="cls-44" d="M4.62,29.83C2.49,28-.33,24.57.48,22.53a3.77,3.77,0,0,1,.06-3.9c1.57-2.5,4.09-1.77,6.41-.43A14.3,14.3,0,0,0,4.62,29.83Z" transform="translate(5.05 17.81)"/><path class="cls-45" d="M4.64,30.55c-2.13-1.87-5-5.26-4.15-7.3a3.77,3.77,0,0,1,.07-3.9c1.57-2.5,4.09-1.77,6.4-.43A14.25,14.25,0,0,0,4.64,30.55Z" transform="translate(5.05 17.81)"/><path class="cls-46" d="M4.65,31.27C2.52,29.4-.31,26,.51,24a3.77,3.77,0,0,1,.06-3.9c1.57-2.5,4.09-1.77,6.41-.43A14.26,14.26,0,0,0,4.65,31.27Z" transform="translate(5.05 17.81)"/><path class="cls-47" d="M4.66,32C2.53,30.12-.29,26.73.52,24.69a3.75,3.75,0,0,1,.07-3.9C2.16,18.29,4.67,19,7,20.36A14.3,14.3,0,0,0,4.66,32Z" transform="translate(5.05 17.81)"/></g><path id="SVGID-18" data-name="SVGID" class="cls-3" d="M4.68,32.7c-2.13-1.86-5-5.25-4.14-7.29a3.77,3.77,0,0,1,.06-3.9C2.17,19,4.69,19.74,7,21.08A14.21,14.21,0,0,0,4.68,32.7Z" transform="translate(5.05 17.81)"/><path class="cls-5" d="M4.68,32.7c-2.13-1.86-5-5.25-4.14-7.29a3.77,3.77,0,0,1,.06-3.9C2.17,19,4.69,19.74,7,21.08A14.21,14.21,0,0,0,4.68,32.7Z" transform="translate(5.05 17.81)"/><g class="cls-48"><path class="cls-5" d="M29.45,19.43c1.69-.72,4.47-2.33,6.83-2.57,1.61-.16,2.86,4.38,3.17,6a14.67,14.67,0,0,1-1.53,9.91l-.17.27a35.49,35.49,0,0,0,7.73,3.05l.25.07a12.52,12.52,0,0,0,2.13.43C45.15,44.17,40.37,42,28.12,34a10.7,10.7,0,0,0,3.7-4c.15-.29.29-.58.41-.88a7.73,7.73,0,0,0-1.58-8.49Z" transform="translate(5.05 17.81)"/><path class="cls-6" d="M29.45,19.43c1.69-.72,4.47-2.33,6.83-2.57,1.61-.16,2.86,4.38,3.17,6a14.67,14.67,0,0,1-1.53,9.91l-.17.27a35.49,35.49,0,0,0,7.73,3.05l.25.07a12.52,12.52,0,0,0,2.13.43C45.15,44.17,40.37,42,28.12,34a10.7,10.7,0,0,0,3.7-4c.15-.29.29-.58.41-.88a7.73,7.73,0,0,0-1.58-8.49Z" transform="translate(5.05 17.81)"/><path class="cls-6" d="M29.45,19.43c1.69-.72,4.47-2.33,6.83-2.57,1.61-.16,2.86,4.38,3.17,6a14.67,14.67,0,0,1-1.53,9.91l-.17.27a35.49,35.49,0,0,0,7.73,3.05l.25.07a12.52,12.52,0,0,0,2.13.43C45.15,44.17,40.37,42,28.12,34a10.7,10.7,0,0,0,3.7-4c.15-.29.29-.58.41-.88a7.73,7.73,0,0,0-1.58-8.49Z" transform="translate(5.05 17.81)"/><path class="cls-49" d="M29.45,19.43c1.69-.72,4.47-2.33,6.83-2.57,1.61-.16,2.86,4.38,3.17,6a14.67,14.67,0,0,1-1.53,9.91l-.17.27a35.49,35.49,0,0,0,7.73,3.05l.25.07a12.52,12.52,0,0,0,2.13.43C45.15,44.17,40.37,42,28.12,34a10.7,10.7,0,0,0,3.7-4c.15-.29.29-.58.41-.88a7.73,7.73,0,0,0-1.58-8.49Z" transform="translate(5.05 17.81)"/></g><path id="SVGID-19" data-name="SVGID" class="cls-1" d="M29.45,19.43c1.69-.72,4.47-2.33,6.83-2.57,1.61-.16,2.86,4.38,3.17,6a14.67,14.67,0,0,1-1.53,9.91l-.17.27a35.49,35.49,0,0,0,7.73,3.05l.25.07a12.52,12.52,0,0,0,2.13.43C45.15,44.17,40.37,42,28.12,34a10.7,10.7,0,0,0,3.7-4c.15-.29.29-.58.41-.88a7.73,7.73,0,0,0-1.58-8.49Z" transform="translate(5.05 17.81)"/><path class="cls-5" d="M29.45,19.43c1.69-.72,4.47-2.33,6.83-2.57,1.61-.16,2.86,4.38,3.17,6a14.67,14.67,0,0,1-1.53,9.91l-.17.27a35.49,35.49,0,0,0,7.73,3.05l.25.07a12.52,12.52,0,0,0,2.13.43C45.15,44.17,40.37,42,28.12,34a10.7,10.7,0,0,0,3.7-4c.15-.29.29-.58.41-.88a7.73,7.73,0,0,0-1.58-8.49Z" transform="translate(5.05 17.81)"/><g class="cls-50"><path class="cls-5" d="M29.45,19c1.69-.72,4.47-2.33,6.83-2.57,1.61-.16,2.86,4.38,3.17,6a14.65,14.65,0,0,1-1.53,9.9l-.17.27a35.49,35.49,0,0,0,7.73,3l.25.07a12.52,12.52,0,0,0,2.13.43c-2.71,7.59-7.49,5.44-19.74-2.6a10.81,10.81,0,0,0,3.7-4c.15-.28.29-.58.41-.87a7.73,7.73,0,0,0-1.58-8.49Z" transform="translate(5.05 17.81)"/><path class="cls-9" d="M29.45,19c1.69-.72,4.47-2.33,6.83-2.57,1.61-.16,2.86,4.38,3.17,6a14.65,14.65,0,0,1-1.53,9.9l-.17.27a35.49,35.49,0,0,0,7.73,3l.25.07a12.52,12.52,0,0,0,2.13.43c-2.71,7.59-7.49,5.44-19.74-2.6a10.81,10.81,0,0,0,3.7-4c.15-.28.29-.58.41-.87a7.73,7.73,0,0,0-1.58-8.49Z" transform="translate(5.05 17.81)"/><path class="cls-37" d="M29.45,19c1.69-.72,4.47-2.33,6.83-2.57,1.61-.16,2.86,4.38,3.17,6a14.65,14.65,0,0,1-1.53,9.9l-.17.27a35.49,35.49,0,0,0,7.73,3l.25.07a12.52,12.52,0,0,0,2.13.43c-2.71,7.59-7.49,5.44-19.74-2.6a10.81,10.81,0,0,0,3.7-4c.15-.28.29-.58.41-.87a7.73,7.73,0,0,0-1.58-8.49Z" transform="translate(5.05 17.81)"/><path class="cls-51" d="M29.45,19c1.69-.72,4.47-2.33,6.83-2.57,1.61-.16,2.86,4.38,3.17,6a14.65,14.65,0,0,1-1.53,9.9l-.17.27a35.49,35.49,0,0,0,7.73,3l.25.07a12.52,12.52,0,0,0,2.13.43c-2.71,7.59-7.49,5.44-19.74-2.6a10.81,10.81,0,0,0,3.7-4c.15-.28.29-.58.41-.87a7.73,7.73,0,0,0-1.58-8.49Z" transform="translate(5.05 17.81)"/><path class="cls-52" d="M29.45,19c1.69-.72,4.47-2.33,6.83-2.57,1.61-.16,2.86,4.38,3.17,6a14.65,14.65,0,0,1-1.53,9.9l-.17.27a35.49,35.49,0,0,0,7.73,3l.25.07a12.52,12.52,0,0,0,2.13.43c-2.71,7.59-7.49,5.44-19.74-2.6a10.81,10.81,0,0,0,3.7-4c.15-.28.29-.58.41-.87a7.73,7.73,0,0,0-1.58-8.49Z" transform="translate(5.05 17.81)"/><path class="cls-53" d="M29.45,19c1.69-.72,4.47-2.33,6.83-2.57,1.61-.16,2.86,4.38,3.17,6a14.65,14.65,0,0,1-1.53,9.9l-.17.27a35.49,35.49,0,0,0,7.73,3l.25.07a12.52,12.52,0,0,0,2.13.43c-2.71,7.59-7.49,5.44-19.74-2.6a10.81,10.81,0,0,0,3.7-4c.15-.28.29-.58.41-.87a7.73,7.73,0,0,0-1.58-8.49Z" transform="translate(5.05 17.81)"/><path class="cls-54" d="M29.45,19c1.69-.72,4.47-2.33,6.83-2.57,1.61-.16,2.86,4.38,3.17,6a14.65,14.65,0,0,1-1.53,9.9l-.17.27a35.49,35.49,0,0,0,7.73,3l.25.07a12.52,12.52,0,0,0,2.13.43c-2.71,7.59-7.49,5.44-19.74-2.6a10.81,10.81,0,0,0,3.7-4c.15-.28.29-.58.41-.87a7.73,7.73,0,0,0-1.58-8.49Z" transform="translate(5.05 17.81)"/><path class="cls-55" d="M29.45,19c1.69-.72,4.47-2.33,6.83-2.57,1.61-.16,2.86,4.38,3.17,6a14.65,14.65,0,0,1-1.53,9.9l-.17.27a35.49,35.49,0,0,0,7.73,3l.25.07a12.52,12.52,0,0,0,2.13.43c-2.71,7.59-7.49,5.44-19.74-2.6a10.81,10.81,0,0,0,3.7-4c.15-.28.29-.58.41-.87a7.73,7.73,0,0,0-1.58-8.49Z" transform="translate(5.05 17.81)"/></g><path id="SVGID-20" data-name="SVGID" class="cls-2" d="M29.45,19c1.69-.72,4.47-2.33,6.83-2.57,1.61-.16,2.86,4.38,3.17,6a14.65,14.65,0,0,1-1.53,9.9l-.17.27a35.49,35.49,0,0,0,7.73,3l.25.07a12.52,12.52,0,0,0,2.13.43c-2.71,7.59-7.49,5.44-19.74-2.6a10.81,10.81,0,0,0,3.7-4c.15-.28.29-.58.41-.87a7.73,7.73,0,0,0-1.58-8.49Z" transform="translate(5.05 17.81)"/><path class="cls-5" d="M29.45,19c1.69-.72,4.47-2.33,6.83-2.57,1.61-.16,2.86,4.38,3.17,6a14.65,14.65,0,0,1-1.53,9.9l-.17.27a35.49,35.49,0,0,0,7.73,3l.25.07a12.52,12.52,0,0,0,2.13.43c-2.71,7.59-7.49,5.44-19.74-2.6a10.81,10.81,0,0,0,3.7-4c.15-.28.29-.58.41-.87a7.73,7.73,0,0,0-1.58-8.49Z" transform="translate(5.05 17.81)"/><g class="cls-56"><path class="cls-5" d="M29.45,18.64c1.69-.72,4.47-2.33,6.83-2.57,1.61-.17,2.86,4.37,3.17,6A14.64,14.64,0,0,1,37.92,32l-.17.27a35,35,0,0,0,7.73,3l.25.07a11.61,11.61,0,0,0,2.13.43c-2.71,7.59-7.49,5.45-19.74-2.6a10.73,10.73,0,0,0,3.7-4,8.65,8.65,0,0,0,.41-.87,7.73,7.73,0,0,0-1.58-8.49Z" transform="translate(5.05 17.81)"/><path class="cls-22" d="M29.45,18.64c1.69-.72,4.47-2.33,6.83-2.57,1.61-.17,2.86,4.37,3.17,6A14.64,14.64,0,0,1,37.92,32l-.17.27a35,35,0,0,0,7.73,3l.25.07a11.61,11.61,0,0,0,2.13.43c-2.71,7.59-7.49,5.45-19.74-2.6a10.73,10.73,0,0,0,3.7-4,8.65,8.65,0,0,0,.41-.87,7.73,7.73,0,0,0-1.58-8.49Z" transform="translate(5.05 17.81)"/><path class="cls-43" d="M29.45,18.64c1.69-.72,4.47-2.33,6.83-2.57,1.61-.17,2.86,4.37,3.17,6A14.64,14.64,0,0,1,37.92,32l-.17.27a35,35,0,0,0,7.73,3l.25.07a11.61,11.61,0,0,0,2.13.43c-2.71,7.59-7.49,5.45-19.74-2.6a10.73,10.73,0,0,0,3.7-4,8.65,8.65,0,0,0,.41-.87,7.73,7.73,0,0,0-1.58-8.49Z" transform="translate(5.05 17.81)"/><path class="cls-57" d="M29.45,18.64c1.69-.72,4.47-2.33,6.83-2.57,1.61-.17,2.86,4.37,3.17,6A14.64,14.64,0,0,1,37.92,32l-.17.27a35,35,0,0,0,7.73,3l.25.07a11.61,11.61,0,0,0,2.13.43c-2.71,7.59-7.49,5.45-19.74-2.6a10.73,10.73,0,0,0,3.7-4,8.65,8.65,0,0,0,.41-.87,7.73,7.73,0,0,0-1.58-8.49Z" transform="translate(5.05 17.81)"/><path class="cls-58" d="M29.45,18.64c1.69-.72,4.47-2.33,6.83-2.57,1.61-.17,2.86,4.37,3.17,6A14.64,14.64,0,0,1,37.92,32l-.17.27a35,35,0,0,0,7.73,3l.25.07a11.61,11.61,0,0,0,2.13.43c-2.71,7.59-7.49,5.45-19.74-2.6a10.73,10.73,0,0,0,3.7-4,8.65,8.65,0,0,0,.41-.87,7.73,7.73,0,0,0-1.58-8.49Z" transform="translate(5.05 17.81)"/><path class="cls-59" d="M29.45,18.64c1.69-.72,4.47-2.33,6.83-2.57,1.61-.17,2.86,4.37,3.17,6A14.64,14.64,0,0,1,37.92,32l-.17.27a35,35,0,0,0,7.73,3l.25.07a11.61,11.61,0,0,0,2.13.43c-2.71,7.59-7.49,5.45-19.74-2.6a10.73,10.73,0,0,0,3.7-4,8.65,8.65,0,0,0,.41-.87,7.73,7.73,0,0,0-1.58-8.49Z" transform="translate(5.05 17.81)"/><path class="cls-60" d="M29.45,18.64c1.69-.72,4.47-2.33,6.83-2.57,1.61-.17,2.86,4.37,3.17,6A14.64,14.64,0,0,1,37.92,32l-.17.27a35,35,0,0,0,7.73,3l.25.07a11.61,11.61,0,0,0,2.13.43c-2.71,7.59-7.49,5.45-19.74-2.6a10.73,10.73,0,0,0,3.7-4,8.65,8.65,0,0,0,.41-.87,7.73,7.73,0,0,0-1.58-8.49Z" transform="translate(5.05 17.81)"/><path class="cls-61" d="M29.45,18.64c1.69-.72,4.47-2.33,6.83-2.57,1.61-.17,2.86,4.37,3.17,6A14.64,14.64,0,0,1,37.92,32l-.17.27a35,35,0,0,0,7.73,3l.25.07a11.61,11.61,0,0,0,2.13.43c-2.71,7.59-7.49,5.45-19.74-2.6a10.73,10.73,0,0,0,3.7-4,8.65,8.65,0,0,0,.41-.87,7.73,7.73,0,0,0-1.58-8.49Z" transform="translate(5.05 17.81)"/></g><path id="SVGID-21" data-name="SVGID" class="cls-3" d="M29.45,18.64c1.69-.72,4.47-2.33,6.83-2.57,1.61-.17,2.86,4.37,3.17,6A14.64,14.64,0,0,1,37.92,32l-.17.27a35,35,0,0,0,7.73,3l.25.07a11.61,11.61,0,0,0,2.13.43c-2.71,7.59-7.49,5.45-19.74-2.6a10.73,10.73,0,0,0,3.7-4,8.65,8.65,0,0,0,.41-.87,7.73,7.73,0,0,0-1.58-8.49Z" transform="translate(5.05 17.81)"/><path class="cls-5" d="M29.45,18.64c1.69-.72,4.47-2.33,6.83-2.57,1.61-.17,2.86,4.37,3.17,6A14.64,14.64,0,0,1,37.92,32l-.17.27a35,35,0,0,0,7.73,3l.25.07a11.61,11.61,0,0,0,2.13.43c-2.71,7.59-7.49,5.45-19.74-2.6a10.73,10.73,0,0,0,3.7-4,8.65,8.65,0,0,0,.41-.87,7.73,7.73,0,0,0-1.58-8.49Z" transform="translate(5.05 17.81)"/><g class="cls-62"><path class="cls-5" d="M44.81,19.79c1.15,1.79-.8,5.45-2.49,7.72a15,15,0,0,0-1-5.27,21.79,21.79,0,0,0-1.79-3.56A8,8,0,0,0,38.12,17a4.24,4.24,0,0,0-.4-.31C39.72,15,42,13.84,44,16A3.75,3.75,0,0,1,44.81,19.79Z" transform="translate(5.05 17.81)"/><path class="cls-6" d="M44.81,19.79c1.15,1.79-.8,5.45-2.49,7.72a15,15,0,0,0-1-5.27,21.79,21.79,0,0,0-1.79-3.56A8,8,0,0,0,38.12,17a4.24,4.24,0,0,0-.4-.31C39.72,15,42,13.84,44,16A3.75,3.75,0,0,1,44.81,19.79Z" transform="translate(5.05 17.81)"/><path class="cls-6" d="M45,15.47c1.15,1.79-.8,5.46-2.5,7.72a14.73,14.73,0,0,0-1-5.26,21.83,21.83,0,0,0-1.79-3.57,8,8,0,0,0-1.37-1.67,3.34,3.34,0,0,0-.41-.3c2-1.72,4.3-2.86,6.3-.73A3.76,3.76,0,0,1,45,15.47Z" transform="translate(5.05 17.81)"/><path class="cls-63" d="M44.89,17.63c1.15,1.79-.8,5.45-2.5,7.72a14.54,14.54,0,0,0-1-5.27,21.39,21.39,0,0,0-1.79-3.56,7.65,7.65,0,0,0-1.37-1.67,2.46,2.46,0,0,0-.4-.3c2-1.73,4.3-2.86,6.29-.73A3.76,3.76,0,0,1,44.89,17.63Z" transform="translate(5.05 17.81)"/></g><path id="SVGID-22" data-name="SVGID" class="cls-1" d="M44.81,19.79c1.15,1.79-.8,5.45-2.49,7.72a15,15,0,0,0-1-5.27,21.79,21.79,0,0,0-1.79-3.56A8,8,0,0,0,38.12,17a4.24,4.24,0,0,0-.4-.31C39.72,15,42,13.84,44,16A3.75,3.75,0,0,1,44.81,19.79Z" transform="translate(5.05 17.81)"/><path class="cls-5" d="M44.81,19.79c1.15,1.79-.8,5.45-2.49,7.72a15,15,0,0,0-1-5.27,21.79,21.79,0,0,0-1.79-3.56A8,8,0,0,0,38.12,17a4.24,4.24,0,0,0-.4-.31C39.72,15,42,13.84,44,16A3.75,3.75,0,0,1,44.81,19.79Z" transform="translate(5.05 17.81)"/><g class="cls-64"><path class="cls-5" d="M44.81,19.39c1.15,1.79-.8,5.45-2.49,7.72a15,15,0,0,0-1-5.27,22.2,22.2,0,0,0-1.79-3.56,8,8,0,0,0-1.37-1.67,3,3,0,0,0-.4-.3c2-1.73,4.29-2.86,6.29-.73A3.75,3.75,0,0,1,44.81,19.39Z" transform="translate(5.05 17.81)"/><path class="cls-9" d="M44.81,19.39c1.15,1.79-.8,5.45-2.49,7.72a15,15,0,0,0-1-5.27,22.2,22.2,0,0,0-1.79-3.56,8,8,0,0,0-1.37-1.67,3,3,0,0,0-.4-.3c2-1.73,4.29-2.86,6.29-.73A3.75,3.75,0,0,1,44.81,19.39Z" transform="translate(5.05 17.81)"/><path class="cls-37" d="M45,15.08c1.15,1.78-.8,5.45-2.5,7.72a14.74,14.74,0,0,0-1-5.27A22.23,22.23,0,0,0,39.64,14a8.49,8.49,0,0,0-1.37-1.67,3.34,3.34,0,0,0-.41-.3c2-1.72,4.3-2.86,6.3-.73A3.77,3.77,0,0,1,45,15.08Z" transform="translate(5.05 17.81)"/><path class="cls-65" d="M44.93,15.94c1.15,1.79-.8,5.45-2.49,7.72a15,15,0,0,0-1-5.27,22.2,22.2,0,0,0-1.79-3.56,8,8,0,0,0-1.37-1.67,3.38,3.38,0,0,0-.41-.31c2-1.72,4.3-2.85,6.3-.72A3.75,3.75,0,0,1,44.93,15.94Z" transform="translate(5.05 17.81)"/><path class="cls-66" d="M44.9,16.8c1.15,1.79-.8,5.46-2.49,7.72a15,15,0,0,0-1-5.27,22.2,22.2,0,0,0-1.79-3.56A8,8,0,0,0,38.21,14a3.34,3.34,0,0,0-.41-.3c2-1.72,4.3-2.86,6.3-.73A3.76,3.76,0,0,1,44.9,16.8Z" transform="translate(5.05 17.81)"/><path class="cls-67" d="M44.87,17.67c1.15,1.78-.8,5.45-2.49,7.72a15,15,0,0,0-1-5.27,22.23,22.23,0,0,0-1.79-3.57,8.49,8.49,0,0,0-1.37-1.67,4.17,4.17,0,0,0-.4-.3c2-1.72,4.29-2.86,6.29-.73A3.77,3.77,0,0,1,44.87,17.67Z" transform="translate(5.05 17.81)"/><path class="cls-68" d="M44.84,18.53C46,20.32,44,24,42.35,26.25a15,15,0,0,0-1-5.27,21.79,21.79,0,0,0-1.79-3.56,8,8,0,0,0-1.37-1.67,3.38,3.38,0,0,0-.41-.31c2-1.72,4.3-2.86,6.3-.72A3.75,3.75,0,0,1,44.84,18.53Z" transform="translate(5.05 17.81)"/></g><path id="SVGID-23" data-name="SVGID" class="cls-2" d="M44.81,19.39c1.15,1.79-.8,5.45-2.49,7.72a15,15,0,0,0-1-5.27,22.2,22.2,0,0,0-1.79-3.56,8,8,0,0,0-1.37-1.67,3,3,0,0,0-.4-.3c2-1.73,4.29-2.86,6.29-.73A3.75,3.75,0,0,1,44.81,19.39Z" transform="translate(5.05 17.81)"/><path class="cls-5" d="M44.81,19.39c1.15,1.79-.8,5.45-2.49,7.72a15,15,0,0,0-1-5.27,22.2,22.2,0,0,0-1.79-3.56,8,8,0,0,0-1.37-1.67,3,3,0,0,0-.4-.3c2-1.73,4.29-2.86,6.29-.73A3.75,3.75,0,0,1,44.81,19.39Z" transform="translate(5.05 17.81)"/><g class="cls-69"><path class="cls-5" d="M44.81,19c1.15,1.78-.8,5.45-2.49,7.71a15,15,0,0,0-1-5.26,21.83,21.83,0,0,0-1.79-3.57,8.49,8.49,0,0,0-1.37-1.67,4.17,4.17,0,0,0-.4-.3c2-1.72,4.29-2.86,6.29-.73A3.77,3.77,0,0,1,44.81,19Z" transform="translate(5.05 17.81)"/><path class="cls-22" d="M44.81,19c1.15,1.78-.8,5.45-2.49,7.71a15,15,0,0,0-1-5.26,21.83,21.83,0,0,0-1.79-3.57,8.49,8.49,0,0,0-1.37-1.67,4.17,4.17,0,0,0-.4-.3c2-1.72,4.29-2.86,6.29-.73A3.77,3.77,0,0,1,44.81,19Z" transform="translate(5.05 17.81)"/><path class="cls-43" d="M45,14.68c1.15,1.79-.8,5.45-2.49,7.72a15,15,0,0,0-1-5.27,21.79,21.79,0,0,0-1.79-3.56,8,8,0,0,0-1.37-1.67,3.38,3.38,0,0,0-.41-.31c2-1.72,4.3-2.85,6.3-.72A3.75,3.75,0,0,1,45,14.68Z" transform="translate(5.05 17.81)"/><path class="cls-70" d="M44.93,15.54c1.15,1.79-.8,5.45-2.49,7.72a15,15,0,0,0-1-5.27,22.2,22.2,0,0,0-1.79-3.56,8,8,0,0,0-1.37-1.67,2.55,2.55,0,0,0-.41-.3c2-1.72,4.3-2.86,6.3-.73A3.76,3.76,0,0,1,44.93,15.54Z" transform="translate(5.05 17.81)"/><path class="cls-71" d="M44.9,16.41c1.15,1.78-.8,5.45-2.49,7.71a15,15,0,0,0-1-5.26,21.83,21.83,0,0,0-1.79-3.57,8.49,8.49,0,0,0-1.37-1.67,3.34,3.34,0,0,0-.41-.3c2-1.72,4.3-2.86,6.3-.73A3.77,3.77,0,0,1,44.9,16.41Z" transform="translate(5.05 17.81)"/><path class="cls-72" d="M44.87,17.27c1.15,1.79-.8,5.45-2.49,7.72a15,15,0,0,0-1-5.27,21.79,21.79,0,0,0-1.79-3.56,8,8,0,0,0-1.37-1.67,4.24,4.24,0,0,0-.4-.31c2-1.72,4.29-2.86,6.29-.72A3.75,3.75,0,0,1,44.87,17.27Z" transform="translate(5.05 17.81)"/><path class="cls-73" d="M44.84,18.13c1.15,1.79-.8,5.45-2.49,7.72a15,15,0,0,0-1-5.27A22.2,22.2,0,0,0,39.52,17a8,8,0,0,0-1.37-1.67,2.55,2.55,0,0,0-.41-.3c2-1.73,4.3-2.86,6.3-.73A3.76,3.76,0,0,1,44.84,18.13Z" transform="translate(5.05 17.81)"/></g><path id="SVGID-24" data-name="SVGID" class="cls-3" d="M44.81,19c1.15,1.78-.8,5.45-2.49,7.71a15,15,0,0,0-1-5.26,21.83,21.83,0,0,0-1.79-3.57,8.49,8.49,0,0,0-1.37-1.67,4.17,4.17,0,0,0-.4-.3c2-1.72,4.29-2.86,6.29-.73A3.77,3.77,0,0,1,44.81,19Z" transform="translate(5.05 17.81)"/><path class="cls-5" d="M44.81,19c1.15,1.78-.8,5.45-2.49,7.71a15,15,0,0,0-1-5.26,21.83,21.83,0,0,0-1.79-3.57,8.49,8.49,0,0,0-1.37-1.67,4.17,4.17,0,0,0-.4-.3c2-1.72,4.29-2.86,6.29-.73A3.77,3.77,0,0,1,44.81,19Z" transform="translate(5.05 17.81)"/></g></g></svg>